# xmcd
#
# Track frame offsets: 
#        150
#        21785
#        37845
#        53832
#        67520
#        88152
#        107980
#        124267
#        143087
#
# Disc length: 2218 seconds
#
# Revision: 5
# Processed by: cddbd v1.5.1PL0 Copyright (c) Steve Scherf et al.
# Submitted via: ExactAudioCopy v0.95b1
#
DISCID=7008a809
DTITLE=Tower Of Power - Back On The Streets
DYEAR=1979
DGENRE=R&B+Funk
TTITLE0=Rock Baby
TTITLE1=Our Love
TTITLE2=Heaven Must Have Made You
TTITLE3=And You Know It
TTITLE4=Nowhere To Run
TTITLE5=Something Calls Me
TTITLE6=It Takes Two (To Make It Happen)
TTITLE7=In Due Time
TTITLE8=Just Make A Move (And Be Yourself)
EXTD=Label - Sony, Columbia Records\n\nTower of Power:\nMichael Jeffri
EXTD=es - lead vocals, background vocals\nLenny Pickett - 1st tenor sa
EXTD=x, alto sax, soprano sax, synthesizer, background vocals\nEmilio 
EXTD=Castillo - 2nd tenor sax, background vocals\nSteven Kupka - barit
EXTD=one sax, background vocals\nMic Gillette - trumpet, piccolo trump
EXTD=et, flugelhorn, bass trombone, background vocals\nGreg Adams - tr
EXTD=umpet, flugelhorn, background vocals\nChester Thompson - organ, c
EXTD=lavinet, Mini-Moog, Fender Rhodes piano, acoustic piano, backgrou
EXTD=nd vocals\nDanny Hoefer - guitar\nVito San Filippo - bass, backgr
EXTD=ound vocals\nDavid Garibaldi - drums, syndrums
EXTT0=
EXTT1=
EXTT2=
EXTT3=
EXTT4=
EXTT5=
EXTT6=
EXTT7=
EXTT8=
PLAYORDER=
